<svg width="886" height="267" viewBox="0 0 886 267" fill="none" xmlns="http://www.w3.org/2000/svg">
<path d="M36.448 14.234V21.805H23.986V61H14.606V21.805H2.144V14.234H36.448ZM77.7969 41.637C77.7969 42.977 77.7076 44.183 77.5289 45.255H50.3939C50.6173 47.935 51.5553 50.0343 53.2079 51.553C54.8606 53.0717 56.8929 53.831 59.3049 53.831C62.7889 53.831 65.2679 52.3347 66.7419 49.342H76.8589C75.7869 52.9153 73.7323 55.8633 70.6949 58.186C67.6576 60.464 63.9279 61.603 59.5059 61.603C55.9326 61.603 52.7166 60.8213 49.8579 59.258C47.0439 57.65 44.8329 55.3943 43.2249 52.491C41.6616 49.5877 40.8799 46.2377 40.8799 42.441C40.8799 38.5997 41.6616 35.2273 43.2249 32.324C44.7883 29.4207 46.9769 27.1873 49.7909 25.624C52.6049 24.0607 55.8433 23.279 59.5059 23.279C63.0346 23.279 66.1836 24.0383 68.9529 25.557C71.7669 27.0757 73.9333 29.242 75.4519 32.056C77.0153 34.8253 77.7969 38.019 77.7969 41.637ZM68.0819 38.957C68.0373 36.545 67.1663 34.6243 65.4689 33.195C63.7716 31.721 61.6946 30.984 59.2379 30.984C56.9153 30.984 54.9499 31.6987 53.3419 33.128C51.7786 34.5127 50.8183 36.4557 50.4609 38.957H68.0819ZM105.213 23.346C109.635 23.346 113.208 24.753 115.933 27.567C118.657 30.3363 120.02 34.2223 120.02 39.225V61H110.64V40.498C110.64 37.55 109.903 35.2943 108.429 33.731C106.955 32.123 104.945 31.319 102.399 31.319C99.8078 31.319 97.7532 32.123 96.2345 33.731C94.7605 35.2943 94.0235 37.55 94.0235 40.498V61H84.6435V23.882H94.0235V28.505C95.2742 26.897 96.8598 25.6463 98.7805 24.753C100.746 23.815 102.89 23.346 105.213 23.346ZM149.843 23.346C152.657 23.346 155.159 23.9713 157.347 25.222C159.536 26.428 161.233 28.237 162.439 30.649C163.69 33.0163 164.315 35.875 164.315 39.225V61H154.935V40.498C154.935 37.55 154.198 35.2943 152.724 33.731C151.25 32.123 149.24 31.319 146.694 31.319C144.104 31.319 142.049 32.123 140.53 33.731C139.056 35.2943 138.319 37.55 138.319 40.498V61H128.939V11.42H138.319V28.505C139.525 26.897 141.133 25.6463 143.143 24.753C145.153 23.815 147.387 23.346 149.843 23.346ZM170.823 42.307C170.823 38.555 171.56 35.2273 173.034 32.324C174.553 29.4207 176.585 27.1873 179.131 25.624C181.722 24.0607 184.603 23.279 187.774 23.279C190.544 23.279 192.956 23.8373 195.01 24.954C197.11 26.0707 198.785 27.4777 200.035 29.175V23.882H209.482V61H200.035V55.573C198.829 57.315 197.154 58.7667 195.01 59.928C192.911 61.0447 190.477 61.603 187.707 61.603C184.581 61.603 181.722 60.799 179.131 59.191C176.585 57.583 174.553 55.3273 173.034 52.424C171.56 49.476 170.823 46.1037 170.823 42.307ZM200.035 42.441C200.035 40.163 199.589 38.22 198.695 36.612C197.802 34.9593 196.596 33.7087 195.077 32.86C193.559 31.9667 191.928 31.52 190.186 31.52C188.444 31.52 186.836 31.9443 185.362 32.793C183.888 33.6417 182.682 34.8923 181.744 36.545C180.851 38.153 180.404 40.0737 180.404 42.307C180.404 44.5403 180.851 46.5057 181.744 48.203C182.682 49.8557 183.888 51.1287 185.362 52.022C186.881 52.9153 188.489 53.362 190.186 53.362C191.928 53.362 193.559 52.9377 195.077 52.089C196.596 51.1957 197.802 49.945 198.695 48.337C199.589 46.6843 200.035 44.719 200.035 42.441ZM269.649 23.882V61H260.202V56.31C258.996 57.918 257.411 59.191 255.445 60.129C253.525 61.0223 251.425 61.469 249.147 61.469C246.244 61.469 243.676 60.866 241.442 59.66C239.209 58.4093 237.445 56.6003 236.149 54.233C234.899 51.821 234.273 48.9623 234.273 45.657V23.882H243.653V44.317C243.653 47.265 244.39 49.543 245.864 51.151C247.338 52.7143 249.348 53.496 251.894 53.496C254.485 53.496 256.517 52.7143 257.991 51.151C259.465 49.543 260.202 47.265 260.202 44.317V23.882H269.649ZM325 23.346C329.556 23.346 333.219 24.753 335.988 27.567C338.802 30.3363 340.209 34.2223 340.209 39.225V61H330.829V40.498C330.829 37.5947 330.092 35.3837 328.618 33.865C327.144 32.3017 325.134 31.52 322.588 31.52C320.042 31.52 318.01 32.3017 316.491 33.865C315.017 35.3837 314.28 37.5947 314.28 40.498V61H304.9V40.498C304.9 37.5947 304.163 35.3837 302.689 33.865C301.215 32.3017 299.205 31.52 296.659 31.52C294.069 31.52 292.014 32.3017 290.495 33.865C289.021 35.3837 288.284 37.5947 288.284 40.498V61H278.904V23.882H288.284V28.371C289.49 26.8077 291.031 25.5793 292.907 24.686C294.828 23.7927 296.927 23.346 299.205 23.346C302.109 23.346 304.699 23.9713 306.977 25.222C309.255 26.428 311.02 28.17 312.27 30.448C313.476 28.304 315.218 26.5843 317.496 25.289C319.819 23.9937 322.32 23.346 325 23.346ZM346.698 42.307C346.698 38.555 347.435 35.2273 348.909 32.324C350.428 29.4207 352.46 27.1873 355.006 25.624C357.597 24.0607 360.478 23.279 363.649 23.279C366.419 23.279 368.831 23.8373 370.885 24.954C372.985 26.0707 374.66 27.4777 375.91 29.175V23.882H385.357V61H375.91V55.573C374.704 57.315 373.029 58.7667 370.885 59.928C368.786 61.0447 366.352 61.603 363.582 61.603C360.456 61.603 357.597 60.799 355.006 59.191C352.46 57.583 350.428 55.3273 348.909 52.424C347.435 49.476 346.698 46.1037 346.698 42.307ZM375.91 42.441C375.91 40.163 375.464 38.22 374.57 36.612C373.677 34.9593 372.471 33.7087 370.952 32.86C369.434 31.9667 367.803 31.52 366.061 31.52C364.319 31.52 362.711 31.9443 361.237 32.793C359.763 33.6417 358.557 34.8923 357.619 36.545C356.726 38.153 356.279 40.0737 356.279 42.307C356.279 44.5403 356.726 46.5057 357.619 48.203C358.557 49.8557 359.763 51.1287 361.237 52.022C362.756 52.9153 364.364 53.362 366.061 53.362C367.803 53.362 369.434 52.9377 370.952 52.089C372.471 51.1957 373.677 49.945 374.57 48.337C375.464 46.6843 375.91 44.719 375.91 42.441ZM444.988 41.637C444.988 42.977 444.899 44.183 444.72 45.255H417.585C417.809 47.935 418.747 50.0343 420.399 51.553C422.052 53.0717 424.084 53.831 426.496 53.831C429.98 53.831 432.459 52.3347 433.933 49.342H444.05C442.978 52.9153 440.924 55.8633 437.886 58.186C434.849 60.464 431.119 61.603 426.697 61.603C423.124 61.603 419.908 60.8213 417.049 59.258C414.235 57.65 412.024 55.3943 410.416 52.491C408.853 49.5877 408.071 46.2377 408.071 42.441C408.071 38.5997 408.853 35.2273 410.416 32.324C411.98 29.4207 414.168 27.1873 416.982 25.624C419.796 24.0607 423.035 23.279 426.697 23.279C430.226 23.279 433.375 24.0383 436.144 25.557C438.958 27.0757 441.125 29.242 442.643 32.056C444.207 34.8253 444.988 38.019 444.988 41.637ZM435.273 38.957C435.229 36.545 434.358 34.6243 432.66 33.195C430.963 31.721 428.886 30.984 426.429 30.984C424.107 30.984 422.141 31.6987 420.533 33.128C418.97 34.5127 418.01 36.4557 417.652 38.957H435.273ZM472.337 61L464.699 49.476L457.932 61H447.882L460.009 42.374L447.748 23.882H458.334L465.905 35.339L472.739 23.882H482.789L470.595 42.374L482.923 61H472.337ZM497.398 29.242C498.604 27.5447 500.256 26.1377 502.356 25.021C504.5 23.8597 506.934 23.279 509.659 23.279C512.83 23.279 515.689 24.0607 518.235 25.624C520.825 27.1873 522.858 29.4207 524.332 32.324C525.85 35.1827 526.61 38.5103 526.61 42.307C526.61 46.1037 525.85 49.476 524.332 52.424C522.858 55.3273 520.825 57.583 518.235 59.191C515.689 60.799 512.83 61.603 509.659 61.603C506.934 61.603 504.522 61.0447 502.423 59.928C500.368 58.8113 498.693 57.4043 497.398 55.707V78.688H488.018V23.882H497.398V29.242ZM517.029 42.307C517.029 40.0737 516.56 38.153 515.622 36.545C514.728 34.8923 513.522 33.6417 512.004 32.793C510.53 31.9443 508.922 31.52 507.18 31.52C505.482 31.52 503.874 31.9667 502.356 32.86C500.882 33.7087 499.676 34.9593 498.738 36.612C497.844 38.2647 497.398 40.2077 497.398 42.441C497.398 44.6743 497.844 46.6173 498.738 48.27C499.676 49.9227 500.882 51.1957 502.356 52.089C503.874 52.9377 505.482 53.362 507.18 53.362C508.922 53.362 510.53 52.9153 512.004 52.022C513.522 51.1287 514.728 49.8557 515.622 48.203C516.56 46.5503 517.029 44.585 517.029 42.307ZM567.931 41.637C567.931 42.977 567.841 44.183 567.663 45.255H540.528C540.751 47.935 541.689 50.0343 543.342 51.553C544.994 53.0717 547.027 53.831 549.439 53.831C552.923 53.831 555.402 52.3347 556.876 49.342H566.993C565.921 52.9153 563.866 55.8633 560.829 58.186C557.791 60.464 554.062 61.603 549.64 61.603C546.066 61.603 542.85 60.8213 539.992 59.258C537.178 57.65 534.967 55.3943 533.359 52.491C531.795 49.5877 531.014 46.2377 531.014 42.441C531.014 38.5997 531.795 35.2273 533.359 32.324C534.922 29.4207 537.111 27.1873 539.925 25.624C542.739 24.0607 545.977 23.279 549.64 23.279C553.168 23.279 556.317 24.0383 559.087 25.557C561.901 27.0757 564.067 29.242 565.586 32.056C567.149 34.8253 567.931 38.019 567.931 41.637ZM558.216 38.957C558.171 36.545 557.3 34.6243 555.603 33.195C553.905 31.721 551.828 30.984 549.372 30.984C547.049 30.984 545.084 31.6987 543.476 33.128C541.912 34.5127 540.952 36.4557 540.595 38.957H558.216ZM584.157 29.644C585.363 27.6787 586.927 26.1377 588.847 25.021C590.813 23.9043 593.046 23.346 595.547 23.346V33.195H593.068C590.12 33.195 587.887 33.8873 586.368 35.272C584.894 36.6567 584.157 39.0687 584.157 42.508V61H574.777V23.882H584.157V29.644ZM606.622 19.46C604.97 19.46 603.585 18.9463 602.468 17.919C601.396 16.847 600.86 15.5293 600.86 13.966C600.86 12.4027 601.396 11.1073 602.468 10.08C603.585 9.008 604.97 8.472 606.622 8.472C608.275 8.472 609.637 9.008 610.709 10.08C611.826 11.1073 612.384 12.4027 612.384 13.966C612.384 15.5293 611.826 16.847 610.709 17.919C609.637 18.9463 608.275 19.46 606.622 19.46ZM611.245 23.882V61H601.865V23.882H611.245ZM655.018 41.637C655.018 42.977 654.928 44.183 654.75 45.255H627.615C627.838 47.935 628.776 50.0343 630.429 51.553C632.081 53.0717 634.114 53.831 636.526 53.831C640.01 53.831 642.489 52.3347 643.963 49.342H654.08C653.008 52.9153 650.953 55.8633 647.916 58.186C644.878 60.464 641.149 61.603 636.727 61.603C633.153 61.603 629.937 60.8213 627.079 59.258C624.265 57.65 622.054 55.3943 620.446 52.491C618.882 49.5877 618.101 46.2377 618.101 42.441C618.101 38.5997 618.882 35.2273 620.446 32.324C622.009 29.4207 624.198 27.1873 627.012 25.624C629.826 24.0607 633.064 23.279 636.727 23.279C640.255 23.279 643.404 24.0383 646.174 25.557C648.988 27.0757 651.154 29.242 652.673 32.056C654.236 34.8253 655.018 38.019 655.018 41.637ZM645.303 38.957C645.258 36.545 644.387 34.6243 642.69 33.195C640.992 31.721 638.915 30.984 636.459 30.984C634.136 30.984 632.171 31.6987 630.563 33.128C628.999 34.5127 628.039 36.4557 627.682 38.957H645.303ZM636.593 15.507L626.61 21.135V14.301L636.593 8.874L646.509 14.301V21.135L636.593 15.507ZM682.433 23.346C686.855 23.346 690.429 24.753 693.153 27.567C695.878 30.3363 697.24 34.2223 697.24 39.225V61H687.86V40.498C687.86 37.55 687.123 35.2943 685.649 33.731C684.175 32.123 682.165 31.319 679.619 31.319C677.029 31.319 674.974 32.123 673.455 33.731C671.981 35.2943 671.244 37.55 671.244 40.498V61H661.864V23.882H671.244V28.505C672.495 26.897 674.081 25.6463 676.001 24.753C677.967 23.815 680.111 23.346 682.433 23.346ZM703.748 42.441C703.748 38.5997 704.53 35.2497 706.093 32.391C707.656 29.4877 709.823 27.2543 712.592 25.691C715.361 24.083 718.533 23.279 722.106 23.279C726.707 23.279 730.503 24.4403 733.496 26.763C736.533 29.041 738.566 32.257 739.593 36.411H729.476C728.94 34.803 728.024 33.5523 726.729 32.659C725.478 31.721 723.915 31.252 722.039 31.252C719.359 31.252 717.237 32.2347 715.674 34.2C714.111 36.1207 713.329 38.8677 713.329 42.441C713.329 45.9697 714.111 48.7167 715.674 50.682C717.237 52.6027 719.359 53.563 722.039 53.563C725.836 53.563 728.315 51.8657 729.476 48.471H739.593C738.566 52.491 736.533 55.6847 733.496 58.052C730.459 60.4193 726.662 61.603 722.106 61.603C718.533 61.603 715.361 60.8213 712.592 59.258C709.823 57.65 707.656 55.4167 706.093 52.558C704.53 49.6547 703.748 46.2823 703.748 42.441ZM751.222 19.46C749.569 19.46 748.184 18.9463 747.068 17.919C745.996 16.847 745.46 15.5293 745.46 13.966C745.46 12.4027 745.996 11.1073 747.068 10.08C748.184 9.008 749.569 8.472 751.222 8.472C752.874 8.472 754.237 9.008 755.309 10.08C756.425 11.1073 756.984 12.4027 756.984 13.966C756.984 15.5293 756.425 16.847 755.309 17.919C754.237 18.9463 752.874 19.46 751.222 19.46ZM755.845 23.882V61H746.465V23.882H755.845ZM762.7 42.307C762.7 38.555 763.437 35.2273 764.911 32.324C766.43 29.4207 768.462 27.1873 771.008 25.624C773.599 24.0607 776.48 23.279 779.651 23.279C782.421 23.279 784.833 23.8373 786.887 24.954C788.987 26.0707 790.662 27.4777 791.912 29.175V23.882H801.359V61H791.912V55.573C790.706 57.315 789.031 58.7667 786.887 59.928C784.788 61.0447 782.354 61.603 779.584 61.603C776.458 61.603 773.599 60.799 771.008 59.191C768.462 57.583 766.43 55.3273 764.911 52.424C763.437 49.476 762.7 46.1037 762.7 42.307ZM791.912 42.441C791.912 40.163 791.466 38.22 790.572 36.612C789.679 34.9593 788.473 33.7087 786.954 32.86C785.436 31.9667 783.805 31.52 782.063 31.52C780.321 31.52 778.713 31.9443 777.239 32.793C775.765 33.6417 774.559 34.8923 773.621 36.545C772.728 38.153 772.281 40.0737 772.281 42.307C772.281 44.5403 772.728 46.5057 773.621 48.203C774.559 49.8557 775.765 51.1287 777.239 52.022C778.758 52.9153 780.366 53.362 782.063 53.362C783.805 53.362 785.436 52.9377 786.954 52.089C788.473 51.1957 789.679 49.945 790.572 48.337C791.466 46.6843 791.912 44.719 791.912 42.441ZM39.128 116.637C39.128 117.977 39.0387 119.183 38.86 120.255H11.725C11.9483 122.935 12.8863 125.034 14.539 126.553C16.1917 128.072 18.224 128.831 20.636 128.831C24.12 128.831 26.599 127.335 28.073 124.342H38.19C37.118 127.915 35.0633 130.863 32.026 133.186C28.9887 135.464 25.259 136.603 20.837 136.603C17.2637 136.603 14.0477 135.821 11.189 134.258C8.375 132.65 6.164 130.394 4.556 127.491C2.99267 124.588 2.211 121.238 2.211 117.441C2.211 113.6 2.99267 110.227 4.556 107.324C6.11933 104.421 8.308 102.187 11.122 100.624C13.936 99.0607 17.1743 98.279 20.837 98.279C24.3657 98.279 27.5147 99.0383 30.284 100.557C33.098 102.076 35.2643 104.242 36.783 107.056C38.3463 109.825 39.128 113.019 39.128 116.637ZM29.413 113.957C29.3683 111.545 28.4973 109.624 26.8 108.195C25.1027 106.721 23.0257 105.984 20.569 105.984C18.2463 105.984 16.281 106.699 14.673 108.128C13.1097 109.513 12.1493 111.456 11.792 113.957H29.413ZM66.5436 98.346C70.9656 98.346 74.5389 99.753 77.2636 102.567C79.9882 105.336 81.3506 109.222 81.3506 114.225V136H71.9706V115.498C71.9706 112.55 71.2336 110.294 69.7596 108.731C68.2856 107.123 66.2756 106.319 63.7296 106.319C61.1389 106.319 59.0842 107.123 57.5656 108.731C56.0916 110.294 55.3546 112.55 55.3546 115.498V136H45.9746V98.882H55.3546V103.505C56.6052 101.897 58.1909 100.646 60.1116 99.753C62.0769 98.815 64.2209 98.346 66.5436 98.346ZM99.6505 104.644C100.856 102.679 102.42 101.138 104.34 100.021C106.306 98.9043 108.539 98.346 111.04 98.346V108.195H108.561C105.613 108.195 103.38 108.887 101.861 110.272C100.387 111.657 99.6505 114.069 99.6505 117.508V136H90.2705V98.882H99.6505V104.644ZM122.115 94.46C120.463 94.46 119.078 93.9463 117.961 92.919C116.889 91.847 116.353 90.5293 116.353 88.966C116.353 87.4027 116.889 86.1073 117.961 85.08C119.078 84.008 120.463 83.472 122.115 83.472C123.768 83.472 125.13 84.008 126.202 85.08C127.319 86.1073 127.877 87.4027 127.877 88.966C127.877 90.5293 127.319 91.847 126.202 92.919C125.13 93.9463 123.768 94.46 122.115 94.46ZM126.738 98.882V136H117.358V98.882H126.738ZM133.594 117.374C133.594 113.667 134.353 110.384 135.872 107.525C137.435 104.622 139.534 102.366 142.17 100.758C144.805 99.15 147.708 98.346 150.88 98.346C153.515 98.346 155.838 98.8597 157.848 99.887C159.902 100.87 161.555 102.143 162.806 103.706V98.882H172.253V153.688H162.806V130.908C161.555 132.516 159.88 133.856 157.781 134.928C155.681 136 153.314 136.536 150.679 136.536C147.552 136.536 144.671 135.732 142.036 134.124C139.445 132.471 137.39 130.193 135.872 127.29C134.353 124.387 133.594 121.081 133.594 117.374ZM162.806 117.441C162.806 115.163 162.337 113.198 161.399 111.545C160.461 109.892 159.232 108.642 157.714 107.793C156.24 106.944 154.654 106.52 152.957 106.52C151.304 106.52 149.718 106.944 148.2 107.793C146.726 108.642 145.52 109.892 144.582 111.545C143.644 113.153 143.175 115.096 143.175 117.374C143.175 119.652 143.644 121.64 144.582 123.337C145.52 124.99 146.726 126.24 148.2 127.089C149.718 127.938 151.304 128.362 152.957 128.362C154.654 128.362 156.24 127.938 157.714 127.089C159.232 126.24 160.461 124.99 161.399 123.337C162.337 121.684 162.806 119.719 162.806 117.441ZM216.455 98.882V136H207.008V131.31C205.802 132.918 204.216 134.191 202.251 135.129C200.33 136.022 198.231 136.469 195.953 136.469C193.05 136.469 190.481 135.866 188.248 134.66C186.015 133.409 184.25 131.6 182.955 129.233C181.704 126.821 181.079 123.962 181.079 120.657V98.882H190.459V119.317C190.459 122.265 191.196 124.543 192.67 126.151C194.144 127.714 196.154 128.496 198.7 128.496C201.291 128.496 203.323 127.714 204.797 126.151C206.271 124.543 207.008 122.265 207.008 119.317V98.882H216.455ZM260.215 116.637C260.215 117.977 260.126 119.183 259.947 120.255H232.812C233.035 122.935 233.973 125.034 235.626 126.553C237.279 128.072 239.311 128.831 241.723 128.831C245.207 128.831 247.686 127.335 249.16 124.342H259.277C258.205 127.915 256.15 130.863 253.113 133.186C250.076 135.464 246.346 136.603 241.924 136.603C238.351 136.603 235.135 135.821 232.276 134.258C229.462 132.65 227.251 130.394 225.643 127.491C224.08 124.588 223.298 121.238 223.298 117.441C223.298 113.6 224.08 110.227 225.643 107.324C227.206 104.421 229.395 102.187 232.209 100.624C235.023 99.0607 238.261 98.279 241.924 98.279C245.453 98.279 248.602 99.0383 251.371 100.557C254.185 102.076 256.351 104.242 257.87 107.056C259.433 109.825 260.215 113.019 260.215 116.637ZM250.5 113.957C250.455 111.545 249.584 109.624 247.887 108.195C246.19 106.721 244.113 105.984 241.656 105.984C239.333 105.984 237.368 106.699 235.76 108.128C234.197 109.513 233.236 111.456 232.879 113.957H250.5ZM264.649 117.441C264.649 113.6 265.431 110.25 266.994 107.391C268.558 104.488 270.724 102.254 273.493 100.691C276.263 99.083 279.434 98.279 283.007 98.279C287.608 98.279 291.405 99.4403 294.397 101.763C297.435 104.041 299.467 107.257 300.494 111.411H290.377C289.841 109.803 288.926 108.552 287.63 107.659C286.38 106.721 284.816 106.252 282.94 106.252C280.26 106.252 278.139 107.235 276.575 109.2C275.012 111.121 274.23 113.868 274.23 117.441C274.23 120.97 275.012 123.717 276.575 125.682C278.139 127.603 280.26 128.563 282.94 128.563C286.737 128.563 289.216 126.866 290.377 123.471H300.494C299.467 127.491 297.435 130.685 294.397 133.052C291.36 135.419 287.563 136.603 283.007 136.603C279.434 136.603 276.263 135.821 273.493 134.258C270.724 132.65 268.558 130.417 266.994 127.558C265.431 124.655 264.649 121.282 264.649 117.441ZM341.871 116.637C341.871 117.977 341.782 119.183 341.603 120.255H314.468C314.691 122.935 315.629 125.034 317.282 126.553C318.935 128.072 320.967 128.831 323.379 128.831C326.863 128.831 329.342 127.335 330.816 124.342H340.933C339.861 127.915 337.806 130.863 334.769 133.186C331.732 135.464 328.002 136.603 323.58 136.603C320.007 136.603 316.791 135.821 313.932 134.258C311.118 132.65 308.907 130.394 307.299 127.491C305.736 124.588 304.954 121.238 304.954 117.441C304.954 113.6 305.736 110.227 307.299 107.324C308.862 104.421 311.051 102.187 313.865 100.624C316.679 99.0607 319.917 98.279 323.58 98.279C327.109 98.279 330.258 99.0383 333.027 100.557C335.841 102.076 338.007 104.242 339.526 107.056C341.09 109.825 341.871 113.019 341.871 116.637ZM332.156 113.957C332.111 111.545 331.24 109.624 329.543 108.195C327.846 106.721 325.769 105.984 323.312 105.984C320.989 105.984 319.024 106.699 317.416 108.128C315.853 109.513 314.892 111.456 314.535 113.957H332.156ZM346.306 117.307C346.306 113.555 347.043 110.227 348.517 107.324C350.035 104.421 352.09 102.187 354.681 100.624C357.271 99.0607 360.152 98.279 363.324 98.279C365.736 98.279 368.036 98.815 370.225 99.887C372.413 100.914 374.155 102.299 375.451 104.041V86.42H384.965V136H375.451V130.506C374.289 132.337 372.659 133.811 370.56 134.928C368.46 136.045 366.026 136.603 363.257 136.603C360.13 136.603 357.271 135.799 354.681 134.191C352.09 132.583 350.035 130.327 348.517 127.424C347.043 124.476 346.306 121.104 346.306 117.307ZM375.518 117.441C375.518 115.163 375.071 113.22 374.178 111.612C373.284 109.959 372.078 108.709 370.56 107.86C369.041 106.967 367.411 106.52 365.669 106.52C363.927 106.52 362.319 106.944 360.845 107.793C359.371 108.642 358.165 109.892 357.227 111.545C356.333 113.153 355.887 115.074 355.887 117.307C355.887 119.54 356.333 121.506 357.227 123.203C358.165 124.856 359.371 126.129 360.845 127.022C362.363 127.915 363.971 128.362 365.669 128.362C367.411 128.362 369.041 127.938 370.56 127.089C372.078 126.196 373.284 124.945 374.178 123.337C375.071 121.684 375.518 119.719 375.518 117.441ZM410.608 136.603C407.035 136.603 403.819 135.821 400.96 134.258C398.101 132.65 395.846 130.394 394.193 127.491C392.585 124.588 391.781 121.238 391.781 117.441C391.781 113.644 392.607 110.294 394.26 107.391C395.957 104.488 398.258 102.254 401.161 100.691C404.064 99.083 407.303 98.279 410.876 98.279C414.449 98.279 417.688 99.083 420.591 100.691C423.494 102.254 425.772 104.488 427.425 107.391C429.122 110.294 429.971 113.644 429.971 117.441C429.971 121.238 429.1 124.588 427.358 127.491C425.661 130.394 423.338 132.65 420.39 134.258C417.487 135.821 414.226 136.603 410.608 136.603ZM410.608 128.429C412.305 128.429 413.891 128.027 415.365 127.223C416.884 126.374 418.09 125.124 418.983 123.471C419.876 121.818 420.323 119.808 420.323 117.441C420.323 113.912 419.385 111.21 417.509 109.334C415.678 107.413 413.422 106.453 410.742 106.453C408.062 106.453 405.806 107.413 403.975 109.334C402.188 111.21 401.295 113.912 401.295 117.441C401.295 120.97 402.166 123.694 403.908 125.615C405.695 127.491 407.928 128.429 410.608 128.429ZM446.232 104.644C447.438 102.679 449.001 101.138 450.922 100.021C452.887 98.9043 455.12 98.346 457.622 98.346V108.195H455.143C452.195 108.195 449.961 108.887 448.443 110.272C446.969 111.657 446.232 114.069 446.232 117.508V136H436.852V98.882H446.232V104.644ZM461.527 117.307C461.527 113.555 462.264 110.227 463.738 107.324C465.257 104.421 467.289 102.187 469.835 100.624C472.426 99.0607 475.307 98.279 478.478 98.279C481.248 98.279 483.66 98.8373 485.714 99.954C487.814 101.071 489.489 102.478 490.739 104.175V98.882H500.186V136H490.739V130.573C489.533 132.315 487.858 133.767 485.714 134.928C483.615 136.045 481.181 136.603 478.411 136.603C475.285 136.603 472.426 135.799 469.835 134.191C467.289 132.583 465.257 130.327 463.738 127.424C462.264 124.476 461.527 121.104 461.527 117.307ZM490.739 117.441C490.739 115.163 490.293 113.22 489.399 111.612C488.506 109.959 487.3 108.709 485.781 107.86C484.263 106.967 482.632 106.52 480.89 106.52C479.148 106.52 477.54 106.944 476.066 107.793C474.592 108.642 473.386 109.892 472.448 111.545C471.555 113.153 471.108 115.074 471.108 117.307C471.108 119.54 471.555 121.506 472.448 123.203C473.386 124.856 474.592 126.129 476.066 127.022C477.585 127.915 479.193 128.362 480.89 128.362C482.632 128.362 484.263 127.938 485.781 127.089C487.3 126.196 488.506 124.945 489.399 123.337C490.293 121.684 490.739 119.719 490.739 117.441ZM559.817 116.637C559.817 117.977 559.728 119.183 559.549 120.255H532.414C532.638 122.935 533.576 125.034 535.228 126.553C536.881 128.072 538.913 128.831 541.325 128.831C544.809 128.831 547.288 127.335 548.762 124.342H558.879C557.807 127.915 555.753 130.863 552.715 133.186C549.678 135.464 545.948 136.603 541.526 136.603C537.953 136.603 534.737 135.821 531.878 134.258C529.064 132.65 526.853 130.394 525.245 127.491C523.682 124.588 522.9 121.238 522.9 117.441C522.9 113.6 523.682 110.227 525.245 107.324C526.809 104.421 528.997 102.187 531.811 100.624C534.625 99.0607 537.864 98.279 541.526 98.279C545.055 98.279 548.204 99.0383 550.973 100.557C553.787 102.076 555.954 104.242 557.472 107.056C559.036 109.825 559.817 113.019 559.817 116.637ZM550.102 113.957C550.058 111.545 549.187 109.624 547.489 108.195C545.792 106.721 543.715 105.984 541.258 105.984C538.936 105.984 536.97 106.699 535.362 108.128C533.799 109.513 532.839 111.456 532.481 113.957H550.102ZM587.233 98.346C591.655 98.346 595.228 99.753 597.953 102.567C600.678 105.336 602.04 109.222 602.04 114.225V136H592.66V115.498C592.66 112.55 591.923 110.294 590.449 108.731C588.975 107.123 586.965 106.319 584.419 106.319C581.828 106.319 579.774 107.123 578.255 108.731C576.781 110.294 576.044 112.55 576.044 115.498V136H566.664V98.882H576.044V103.505C577.295 101.897 578.88 100.646 580.801 99.753C582.766 98.815 584.91 98.346 587.233 98.346ZM608.548 117.374C608.548 113.667 609.307 110.384 610.826 107.525C612.389 104.622 614.489 102.366 617.124 100.758C619.759 99.15 622.663 98.346 625.834 98.346C628.469 98.346 630.792 98.8597 632.802 99.887C634.857 100.87 636.509 102.143 637.76 103.706V98.882H647.207V153.688H637.76V130.908C636.509 132.516 634.834 133.856 632.735 134.928C630.636 136 628.268 136.536 625.633 136.536C622.506 136.536 619.625 135.732 616.99 134.124C614.399 132.471 612.345 130.193 610.826 127.29C609.307 124.387 608.548 121.081 608.548 117.374ZM637.76 117.441C637.76 115.163 637.291 113.198 636.353 111.545C635.415 109.892 634.187 108.642 632.668 107.793C631.194 106.944 629.608 106.52 627.911 106.52C626.258 106.52 624.673 106.944 623.154 107.793C621.68 108.642 620.474 109.892 619.536 111.545C618.598 113.153 618.129 115.096 618.129 117.374C618.129 119.652 618.598 121.64 619.536 123.337C620.474 124.99 621.68 126.24 623.154 127.089C624.673 127.938 626.258 128.362 627.911 128.362C629.608 128.362 631.194 127.938 632.668 127.089C634.187 126.24 635.415 124.99 636.353 123.337C637.291 121.684 637.76 119.719 637.76 117.441ZM691.409 98.882V136H681.962V131.31C680.756 132.918 679.17 134.191 677.205 135.129C675.284 136.022 673.185 136.469 670.907 136.469C668.004 136.469 665.435 135.866 663.202 134.66C660.969 133.409 659.204 131.6 657.909 129.233C656.658 126.821 656.033 123.962 656.033 120.657V98.882H665.413V119.317C665.413 122.265 666.15 124.543 667.624 126.151C669.098 127.714 671.108 128.496 673.654 128.496C676.245 128.496 678.277 127.714 679.751 126.151C681.225 124.543 681.962 122.265 681.962 119.317V98.882H691.409ZM698.252 117.307C698.252 113.555 698.989 110.227 700.463 107.324C701.982 104.421 704.014 102.187 706.56 100.624C709.151 99.0607 712.032 98.279 715.203 98.279C717.972 98.279 720.384 98.8373 722.439 99.954C724.538 101.071 726.213 102.478 727.464 104.175V98.882H736.911V136H727.464V130.573C726.258 132.315 724.583 133.767 722.439 134.928C720.34 136.045 717.905 136.603 715.136 136.603C712.009 136.603 709.151 135.799 706.56 134.191C704.014 132.583 701.982 130.327 700.463 127.424C698.989 124.476 698.252 121.104 698.252 117.307ZM727.464 117.441C727.464 115.163 727.017 113.22 726.124 111.612C725.231 109.959 724.025 108.709 722.506 107.86C720.987 106.967 719.357 106.52 717.615 106.52C715.873 106.52 714.265 106.944 712.791 107.793C711.317 108.642 710.111 109.892 709.173 111.545C708.28 113.153 707.833 115.074 707.833 117.307C707.833 119.54 708.28 121.506 709.173 123.203C710.111 124.856 711.317 126.129 712.791 127.022C714.31 127.915 715.918 128.362 717.615 128.362C719.357 128.362 720.987 127.938 722.506 127.089C724.025 126.196 725.231 124.945 726.124 123.337C727.017 121.684 727.464 119.719 727.464 117.441ZM766.641 98.346C771.063 98.346 774.637 99.753 777.361 102.567C780.086 105.336 781.448 109.222 781.448 114.225V136H772.068V115.498C772.068 112.55 771.331 110.294 769.857 108.731C768.383 107.123 766.373 106.319 763.827 106.319C761.237 106.319 759.182 107.123 757.663 108.731C756.189 110.294 755.452 112.55 755.452 115.498V136H746.072V98.882H755.452V103.505C756.703 101.897 758.289 100.646 760.209 99.753C762.175 98.815 764.319 98.346 766.641 98.346ZM801.289 106.587V124.543C801.289 125.794 801.579 126.709 802.16 127.29C802.785 127.826 803.813 128.094 805.242 128.094H809.597V136H803.701C795.795 136 791.842 132.159 791.842 124.476V106.587H787.42V98.882H791.842V89.703H801.289V98.882H809.597V106.587H801.289ZM832.826 136.603C829.252 136.603 826.036 135.821 823.178 134.258C820.319 132.65 818.063 130.394 816.411 127.491C814.803 124.588 813.999 121.238 813.999 117.441C813.999 113.644 814.825 110.294 816.478 107.391C818.175 104.488 820.475 102.254 823.379 100.691C826.282 99.083 829.52 98.279 833.094 98.279C836.667 98.279 839.905 99.083 842.809 100.691C845.712 102.254 847.99 104.488 849.643 107.391C851.34 110.294 852.189 113.644 852.189 117.441C852.189 121.238 851.318 124.588 849.576 127.491C847.878 130.394 845.556 132.65 842.608 134.258C839.704 135.821 836.444 136.603 832.826 136.603ZM832.826 128.429C834.523 128.429 836.109 128.027 837.583 127.223C839.101 126.374 840.307 125.124 841.201 123.471C842.094 121.818 842.541 119.808 842.541 117.441C842.541 113.912 841.603 111.21 839.727 109.334C837.895 107.413 835.64 106.453 832.96 106.453C830.28 106.453 828.024 107.413 826.193 109.334C824.406 111.21 823.513 113.912 823.513 117.441C823.513 120.97 824.384 123.694 826.126 125.615C827.912 127.491 830.146 128.429 832.826 128.429ZM2.211 192.307C2.211 188.555 2.948 185.227 4.422 182.324C5.94067 179.421 7.973 177.187 10.519 175.624C13.1097 174.061 15.9907 173.279 19.162 173.279C21.9313 173.279 24.3433 173.837 26.398 174.954C28.4973 176.071 30.1723 177.478 31.423 179.175V173.882H40.87V211H31.423V205.573C30.217 207.315 28.542 208.767 26.398 209.928C24.2987 211.045 21.8643 211.603 19.095 211.603C15.9683 211.603 13.1097 210.799 10.519 209.191C7.973 207.583 5.94067 205.327 4.422 202.424C2.948 199.476 2.211 196.104 2.211 192.307ZM31.423 192.441C31.423 190.163 30.9763 188.22 30.083 186.612C29.1897 184.959 27.9837 183.709 26.465 182.86C24.9463 181.967 23.316 181.52 21.574 181.52C19.832 181.52 18.224 181.944 16.75 182.793C15.276 183.642 14.07 184.892 13.132 186.545C12.2387 188.153 11.792 190.074 11.792 192.307C11.792 194.54 12.2387 196.506 13.132 198.203C14.07 199.856 15.276 201.129 16.75 202.022C18.2687 202.915 19.8767 203.362 21.574 203.362C23.316 203.362 24.9463 202.938 26.465 202.089C27.9837 201.196 29.1897 199.945 30.083 198.337C30.9763 196.684 31.423 194.719 31.423 192.441ZM59.4112 179.242C60.6172 177.545 62.2699 176.138 64.3692 175.021C66.5132 173.86 68.9475 173.279 71.6722 173.279C74.8435 173.279 77.7022 174.061 80.2482 175.624C82.8389 177.187 84.8712 179.421 86.3452 182.324C87.8639 185.183 88.6232 188.51 88.6232 192.307C88.6232 196.104 87.8639 199.476 86.3452 202.424C84.8712 205.327 82.8389 207.583 80.2482 209.191C77.7022 210.799 74.8435 211.603 71.6722 211.603C68.9475 211.603 66.5355 211.045 64.4362 209.928C62.3815 208.811 60.7065 207.404 59.4112 205.707V228.688H50.0312V173.882H59.4112V179.242ZM79.0422 192.307C79.0422 190.074 78.5732 188.153 77.6352 186.545C76.7419 184.892 75.5359 183.642 74.0172 182.793C72.5432 181.944 70.9352 181.52 69.1932 181.52C67.4959 181.52 65.8879 181.967 64.3692 182.86C62.8952 183.709 61.6892 184.959 60.7512 186.612C59.8579 188.265 59.4112 190.208 59.4112 192.441C59.4112 194.674 59.8579 196.617 60.7512 198.27C61.6892 199.923 62.8952 201.196 64.3692 202.089C65.8879 202.938 67.4959 203.362 69.1932 203.362C70.9352 203.362 72.5432 202.915 74.0172 202.022C75.5359 201.129 76.7419 199.856 77.6352 198.203C78.5732 196.55 79.0422 194.585 79.0422 192.307ZM104.819 179.644C106.025 177.679 107.589 176.138 109.509 175.021C111.475 173.904 113.708 173.346 116.209 173.346V183.195H113.73C110.782 183.195 108.549 183.887 107.03 185.272C105.556 186.657 104.819 189.069 104.819 192.508V211H95.4394V173.882H104.819V179.644ZM157.032 191.637C157.032 192.977 156.943 194.183 156.764 195.255H129.629C129.853 197.935 130.791 200.034 132.443 201.553C134.096 203.072 136.128 203.831 138.54 203.831C142.024 203.831 144.503 202.335 145.977 199.342H156.094C155.022 202.915 152.968 205.863 149.93 208.186C146.893 210.464 143.163 211.603 138.741 211.603C135.168 211.603 131.952 210.821 129.093 209.258C126.279 207.65 124.068 205.394 122.46 202.491C120.897 199.588 120.115 196.238 120.115 192.441C120.115 188.6 120.897 185.227 122.46 182.324C124.024 179.421 126.212 177.187 129.026 175.624C131.84 174.061 135.079 173.279 138.741 173.279C142.27 173.279 145.419 174.038 148.188 175.557C151.002 177.076 153.169 179.242 154.687 182.056C156.251 184.825 157.032 188.019 157.032 191.637ZM147.317 188.957C147.273 186.545 146.402 184.624 144.704 183.195C143.007 181.721 140.93 180.984 138.473 180.984C136.151 180.984 134.185 181.699 132.577 183.128C131.014 184.513 130.054 186.456 129.696 188.957H147.317ZM184.448 173.346C188.87 173.346 192.443 174.753 195.168 177.567C197.893 180.336 199.255 184.222 199.255 189.225V211H189.875V190.498C189.875 187.55 189.138 185.294 187.664 183.731C186.19 182.123 184.18 181.319 181.634 181.319C179.043 181.319 176.989 182.123 175.47 183.731C173.996 185.294 173.259 187.55 173.259 190.498V211H163.879V173.882H173.259V178.505C174.51 176.897 176.095 175.646 178.016 174.753C179.981 173.815 182.125 173.346 184.448 173.346ZM205.763 192.307C205.763 188.555 206.5 185.227 207.974 182.324C209.492 179.421 211.547 177.187 214.138 175.624C216.728 174.061 219.609 173.279 222.781 173.279C225.193 173.279 227.493 173.815 229.682 174.887C231.87 175.914 233.612 177.299 234.908 179.041V161.42H244.422V211H234.908V205.506C233.746 207.337 232.116 208.811 230.017 209.928C227.917 211.045 225.483 211.603 222.714 211.603C219.587 211.603 216.728 210.799 214.138 209.191C211.547 207.583 209.492 205.327 207.974 202.424C206.5 199.476 205.763 196.104 205.763 192.307ZM234.975 192.441C234.975 190.163 234.528 188.22 233.635 186.612C232.741 184.959 231.535 183.709 230.017 182.86C228.498 181.967 226.868 181.52 225.126 181.52C223.384 181.52 221.776 181.944 220.302 182.793C218.828 183.642 217.622 184.892 216.684 186.545C215.79 188.153 215.344 190.074 215.344 192.307C215.344 194.54 215.79 196.506 216.684 198.203C217.622 199.856 218.828 201.129 220.302 202.022C221.82 202.915 223.428 203.362 225.126 203.362C226.868 203.362 228.498 202.938 230.017 202.089C231.535 201.196 232.741 199.945 233.635 198.337C234.528 196.684 234.975 194.719 234.975 192.441ZM288.088 191.637C288.088 192.977 287.999 194.183 287.82 195.255H260.685C260.908 197.935 261.846 200.034 263.499 201.553C265.152 203.072 267.184 203.831 269.596 203.831C273.08 203.831 275.559 202.335 277.033 199.342H287.15C286.078 202.915 284.023 205.863 280.986 208.186C277.949 210.464 274.219 211.603 269.797 211.603C266.224 211.603 263.008 210.821 260.149 209.258C257.335 207.65 255.124 205.394 253.516 202.491C251.953 199.588 251.171 196.238 251.171 192.441C251.171 188.6 251.953 185.227 253.516 182.324C255.079 179.421 257.268 177.187 260.082 175.624C262.896 174.061 266.134 173.279 269.797 173.279C273.326 173.279 276.475 174.038 279.244 175.557C282.058 177.076 284.224 179.242 285.743 182.056C287.306 184.825 288.088 188.019 288.088 191.637ZM278.373 188.957C278.328 186.545 277.457 184.624 275.76 183.195C274.063 181.721 271.986 180.984 269.529 180.984C267.206 180.984 265.241 181.699 263.633 183.128C262.07 184.513 261.109 186.456 260.752 188.957H278.373ZM315.656 169.46C314.004 169.46 312.619 168.946 311.502 167.919C310.43 166.847 309.894 165.529 309.894 163.966C309.894 162.403 310.43 161.107 311.502 160.08C312.619 159.008 314.004 158.472 315.656 158.472C317.309 158.472 318.671 159.008 319.743 160.08C320.86 161.107 321.418 162.403 321.418 163.966C321.418 165.529 320.86 166.847 319.743 167.919C318.671 168.946 317.309 169.46 315.656 169.46ZM320.279 173.882V211H310.899V173.882H320.279ZM350.116 173.346C354.538 173.346 358.111 174.753 360.836 177.567C363.56 180.336 364.923 184.222 364.923 189.225V211H355.543V190.498C355.543 187.55 354.806 185.294 353.332 183.731C351.858 182.123 349.848 181.319 347.302 181.319C344.711 181.319 342.656 182.123 341.138 183.731C339.664 185.294 338.927 187.55 338.927 190.498V211H329.547V173.882H338.927V178.505C340.177 176.897 341.763 175.646 343.684 174.753C345.649 173.815 347.793 173.346 350.116 173.346ZM388.382 173.279C391.151 173.279 393.585 173.837 395.685 174.954C397.784 176.026 399.437 177.433 400.643 179.175V173.882H410.09V211.268C410.09 214.707 409.397 217.767 408.013 220.447C406.628 223.172 404.551 225.316 401.782 226.879C399.012 228.487 395.662 229.291 391.732 229.291C386.461 229.291 382.128 228.063 378.734 225.606C375.384 223.149 373.485 219.799 373.039 215.556H382.352C382.843 217.253 383.893 218.593 385.501 219.576C387.153 220.603 389.141 221.117 391.464 221.117C394.188 221.117 396.399 220.291 398.097 218.638C399.794 217.03 400.643 214.573 400.643 211.268V205.506C399.437 207.248 397.762 208.7 395.618 209.861C393.518 211.022 391.106 211.603 388.382 211.603C385.255 211.603 382.396 210.799 379.806 209.191C377.215 207.583 375.16 205.327 373.642 202.424C372.168 199.476 371.431 196.104 371.431 192.307C371.431 188.555 372.168 185.227 373.642 182.324C375.16 179.421 377.193 177.187 379.739 175.624C382.329 174.061 385.21 173.279 388.382 173.279ZM400.643 192.441C400.643 190.163 400.196 188.22 399.303 186.612C398.409 184.959 397.203 183.709 395.685 182.86C394.166 181.967 392.536 181.52 390.794 181.52C389.052 181.52 387.444 181.944 385.97 182.793C384.496 183.642 383.29 184.892 382.352 186.545C381.458 188.153 381.012 190.074 381.012 192.307C381.012 194.54 381.458 196.506 382.352 198.203C383.29 199.856 384.496 201.129 385.97 202.022C387.488 202.915 389.096 203.362 390.794 203.362C392.536 203.362 394.166 202.938 395.685 202.089C397.203 201.196 398.409 199.945 399.303 198.337C400.196 196.684 400.643 194.719 400.643 192.441ZM428.631 161.42V211H419.251V161.42H428.631ZM472.403 191.637C472.403 192.977 472.314 194.183 472.135 195.255H445C445.224 197.935 446.162 200.034 447.814 201.553C449.467 203.072 451.499 203.831 453.911 203.831C457.395 203.831 459.874 202.335 461.348 199.342H471.465C470.393 202.915 468.339 205.863 465.301 208.186C462.264 210.464 458.534 211.603 454.112 211.603C450.539 211.603 447.323 210.821 444.464 209.258C441.65 207.65 439.439 205.394 437.831 202.491C436.268 199.588 435.486 196.238 435.486 192.441C435.486 188.6 436.268 185.227 437.831 182.324C439.395 179.421 441.583 177.187 444.397 175.624C447.211 174.061 450.45 173.279 454.112 173.279C457.641 173.279 460.79 174.038 463.559 175.557C466.373 177.076 468.54 179.242 470.058 182.056C471.622 184.825 472.403 188.019 472.403 191.637ZM462.688 188.957C462.644 186.545 461.773 184.624 460.075 183.195C458.378 181.721 456.301 180.984 453.844 180.984C451.522 180.984 449.556 181.699 447.948 183.128C446.385 184.513 445.425 186.456 445.067 188.957H462.688ZM453.978 165.507L443.995 171.135V164.301L453.978 158.874L463.894 164.301V171.135L453.978 165.507ZM493.454 211.603C490.417 211.603 487.692 211.067 485.28 209.995C482.868 208.878 480.947 207.382 479.518 205.506C478.133 203.63 477.374 201.553 477.24 199.275H486.687C486.866 200.704 487.558 201.888 488.764 202.826C490.015 203.764 491.556 204.233 493.387 204.233C495.174 204.233 496.558 203.876 497.541 203.161C498.568 202.446 499.082 201.531 499.082 200.414C499.082 199.208 498.457 198.315 497.206 197.734C496 197.109 494.057 196.439 491.377 195.724C488.608 195.054 486.33 194.362 484.543 193.647C482.801 192.932 481.282 191.838 479.987 190.364C478.736 188.89 478.111 186.902 478.111 184.401C478.111 182.346 478.692 180.47 479.853 178.773C481.059 177.076 482.756 175.736 484.945 174.753C487.178 173.77 489.791 173.279 492.784 173.279C497.206 173.279 500.735 174.396 503.37 176.629C506.005 178.818 507.457 181.788 507.725 185.54H498.747C498.613 184.066 497.988 182.905 496.871 182.056C495.799 181.163 494.347 180.716 492.516 180.716C490.819 180.716 489.501 181.029 488.563 181.654C487.67 182.279 487.223 183.15 487.223 184.267C487.223 185.518 487.848 186.478 489.099 187.148C490.35 187.773 492.293 188.421 494.928 189.091C497.608 189.761 499.819 190.453 501.561 191.168C503.303 191.883 504.799 192.999 506.05 194.518C507.345 195.992 508.015 197.957 508.06 200.414C508.06 202.558 507.457 204.479 506.251 206.176C505.09 207.873 503.392 209.213 501.159 210.196C498.97 211.134 496.402 211.603 493.454 211.603Z" fill="#2F2F2F"/>
<path d="M304.045 242L331.565 258.078L358.602 242.154L384.112 258.226L410.575 242.301L436.947 258.376L464.557 242.454L491.216 258.529L518.54 242.606" stroke="#EF2D55" stroke-width="13"/>
</svg>
