<svg width="30" height="30" viewBox="0 0 30 30" fill="none" xmlns="http://www.w3.org/2000/svg">
<path d="M5.31959 9.63559C2.60458 9.63559 1.24707 10.9931 1.24707 13.7081V24.5681C1.24707 27.2832 2.60458 28.6407 5.31959 28.6407H16.1796C13.4646 28.6407 12.1071 27.2832 12.1071 24.5681V9.63559M5.31959 9.63559H12.1071M5.31959 9.63559V6.92058C5.31959 5.42732 6.54134 4.20557 8.0346 4.20557H12.2564C12.1478 4.61282 12.1071 5.06079 12.1071 5.56307V9.63559M17.5371 9.63559V16.4231M22.9672 9.63559V16.4231M6.67709 16.4231V21.8531M21.6097 21.8531H18.8946C18.148 21.8531 17.5371 22.464 17.5371 23.2106V28.6407H22.9672V23.2106C22.9672 22.464 22.3563 21.8531 21.6097 21.8531Z" stroke="#EF2D55" stroke-width="1.81001" stroke-miterlimit="10" stroke-linecap="round" stroke-linejoin="round"/>
<path d="M12.1074 24.5681V5.563C12.1074 2.84798 13.4649 1.49048 16.1799 1.49048H24.325C27.04 1.49048 28.3975 2.84798 28.3975 5.563V24.5681C28.3975 27.2831 27.04 28.6406 24.325 28.6406H16.1799C13.4649 28.6406 12.1074 27.2831 12.1074 24.5681Z" stroke="#EF2D55" stroke-width="1.81001" stroke-miterlimit="10" stroke-linecap="round" stroke-linejoin="round"/>
</svg>
