<svg width="30" height="30" viewBox="0 0 30 30" fill="none" xmlns="http://www.w3.org/2000/svg">
<path d="M28.7389 7.26066V14.1849C28.7389 15.9092 28.1687 17.3619 27.1504 18.3666C26.1458 19.3848 24.693 19.9551 22.9688 19.9551V22.4125C22.9688 23.3357 21.9369 23.8924 21.1766 23.3764L19.8596 22.5075C19.9818 22.0866 20.0361 21.625 20.0361 21.1363V15.6105C20.0361 12.8408 18.1897 10.9943 15.42 10.9943H6.20128C6.0112 10.9943 5.8347 11.0079 5.6582 11.0215V7.26066C5.6582 3.79855 7.96628 1.49048 11.4284 1.49048H22.9688C26.4309 1.49048 28.7389 3.79855 28.7389 7.26066Z" stroke="#EF2D55" stroke-width="1.81001" stroke-miterlimit="10" stroke-linecap="round" stroke-linejoin="round"/>
<path d="M20.036 15.6105V21.1363C20.036 21.6251 19.9817 22.0867 19.8595 22.5076C19.3571 24.5034 17.7007 25.7525 15.4198 25.7525H11.7269L7.62668 28.4814C7.48923 28.5755 7.32862 28.6301 7.1623 28.6393C6.99599 28.6485 6.83034 28.6119 6.68337 28.5335C6.5364 28.4551 6.41373 28.338 6.3287 28.1947C6.24367 28.0515 6.19954 27.8877 6.20111 27.7211V25.7525C4.81626 25.7525 3.66223 25.2909 2.86119 24.4898C2.04658 23.6752 1.58496 22.5212 1.58496 21.1363V15.6105C1.58496 13.0309 3.18704 11.2523 5.65803 11.0215C5.83453 11.008 6.01103 10.9944 6.20111 10.9944H15.4198C18.1895 10.9944 20.036 12.8408 20.036 15.6105Z" stroke="#EF2D55" stroke-width="1.81001" stroke-miterlimit="10" stroke-linecap="round" stroke-linejoin="round"/>
</svg>
