<svg width="30" height="30" viewBox="0 0 30 30" fill="none" xmlns="http://www.w3.org/2000/svg">
<path d="M21.9009 18.4783C23.7605 18.7905 25.8101 18.4648 27.2489 17.501C29.1627 16.2251 29.1627 14.1348 27.2489 12.8589C25.7965 11.8952 23.7198 11.5695 21.8602 11.8952M8.36827 18.4783C6.50871 18.7905 4.45913 18.4648 3.02035 17.501C1.1065 16.2251 1.1065 14.1348 3.02035 12.8589C4.4727 11.8952 6.54943 11.5695 8.40899 11.8952M23.299 8.59689C23.2136 8.58331 23.1265 8.58331 23.0411 8.59689C22.1353 8.56413 21.2776 8.18047 20.6495 7.52698C20.0213 6.8735 19.6719 6.00139 19.6749 5.09495C19.6749 3.15396 21.2358 1.59302 23.1768 1.59302C24.1056 1.59302 24.9963 1.96197 25.6531 2.61871C26.3098 3.27545 26.6788 4.16618 26.6788 5.09495C26.6763 6.00203 26.3232 6.87301 25.6932 7.52569C25.0633 8.17838 24.2054 8.56221 23.299 8.59689ZM6.97021 8.59689C7.05165 8.58332 7.14666 8.58332 7.2281 8.59689C8.13395 8.56413 8.99157 8.18047 9.61973 7.52698C10.2479 6.8735 10.5974 6.00139 10.5943 5.09495C10.5943 3.15396 9.03336 1.59302 7.09237 1.59302C6.1636 1.59302 5.27286 1.96197 4.61612 2.61871C3.95938 3.27545 3.59043 4.16618 3.59043 5.09495C3.604 6.99523 5.09708 8.52902 6.97021 8.59689ZM15.155 18.7362C15.0695 18.7226 14.9825 18.7226 14.8971 18.7362C13.9912 18.7035 13.1336 18.3198 12.5054 17.6663C11.8773 17.0128 11.5278 16.1407 11.5309 15.2343C11.5309 13.2933 13.0918 11.7323 15.0328 11.7323C15.9616 11.7323 16.8523 12.1013 17.509 12.758C18.1658 13.4148 18.5347 14.3055 18.5347 15.2343C18.5212 17.1346 17.0281 18.6819 15.155 18.7362ZM11.2051 23.0118C9.29126 24.2877 9.29126 26.378 11.2051 27.6539C13.3769 29.1063 16.9331 29.1063 19.1048 27.6539C21.0187 26.378 21.0187 24.2877 19.1048 23.0118C16.9467 21.5731 13.3769 21.5731 11.2051 23.0118Z" stroke="#EF2D55" stroke-width="1.81001" stroke-linecap="round" stroke-linejoin="round"/>
</svg>
