<svg width="62" height="45" viewBox="0 0 62 45" fill="none" xmlns="http://www.w3.org/2000/svg">
<path d="M20.5644 42.0105L20.5635 42.0096L3.07337 24.6373C3.07211 24.636 3.07085 24.6347 3.06959 24.6335C2.61089 24.1705 2.35632 23.5499 2.35632 22.9063C2.35632 22.2631 2.61063 21.6428 3.06887 21.1799C4.01991 20.2403 5.62405 20.2418 6.57301 21.1844L20.7949 35.3105L22.3178 36.8232L23.8407 35.3105L55.6236 3.74167C56.574 2.79761 58.1817 2.79761 59.1322 3.74167C60.0746 4.67771 60.0746 6.24952 59.1322 7.18556L24.0721 42.0096L24.0712 42.0105C23.6087 42.4704 22.9784 42.7319 22.3178 42.733C21.6572 42.7319 21.0269 42.4704 20.5644 42.0105Z" fill="#EF2D55" stroke="#EF2D55" stroke-width="4.32201"/>
</svg>
