<svg width="26" height="30" viewBox="0 0 26 30" fill="none" xmlns="http://www.w3.org/2000/svg">
<path d="M8.97091 28.5916L12.0236 25.8768C12.4821 25.4613 13.242 25.4613 13.7005 25.8768L16.7532 28.5916C17.4607 28.9656 18.3254 28.5916 18.5874 27.7883L19.1639 25.9461C19.308 25.5029 19.1639 24.8519 18.8494 24.5195L15.8754 21.3615C15.6527 21.1399 15.4823 20.6967 15.4823 20.3781V16.4306C15.4823 15.8489 15.8885 15.5719 16.3994 15.7935L22.8323 18.7299C23.8411 19.1869 24.6665 18.6191 24.6665 17.4556V15.6688C24.6665 14.7408 24.0114 13.6743 23.1991 13.3142L15.8754 9.97618C15.7631 9.91526 15.6679 9.82446 15.5989 9.71273C15.53 9.601 15.4898 9.47221 15.4823 9.33905V5.18382C15.4823 3.88185 14.5783 2.34442 13.4778 1.74884C13.0848 1.54108 12.6262 1.54108 12.2332 1.74884C11.1327 2.34442 10.2287 3.89571 10.2287 5.19768V9.3529C10.2287 9.60221 10.0452 9.89308 9.83561 9.99004L2.52498 13.3281C1.71269 13.6743 1.05762 14.7408 1.05762 15.6688V17.4556C1.05762 18.6191 1.88301 19.1869 2.89182 18.7299L9.32465 15.7935C9.82251 15.558 10.2418 15.8489 10.2418 16.4306V20.3781C10.2418 20.6967 10.0714 21.1399 9.86181 21.3615L6.88777 24.5195C6.57334 24.8519 6.42922 25.489 6.57334 25.9461L7.1498 27.7883C7.38563 28.5916 8.25033 28.9794 8.97091 28.5916Z" stroke="#EF2D55" stroke-width="1.81001" stroke-linecap="round" stroke-linejoin="round"/>
</svg>
