<svg width="144" height="208" viewBox="0 0 144 208" fill="none" xmlns="http://www.w3.org/2000/svg">
<path d="M95.9358 154.777L126.995 106.418C132.892 96.7169 136.289 85.3273 136.289 73.1444C136.289 37.7184 107.57 9 72.1444 9C36.7184 9 8 37.7184 8 73.1444C8 85.3273 11.3964 96.7169 17.294 106.418L48.7181 153.999C49.3228 154.915 50.6695 154.906 51.2621 153.982M49.1007 170.406H95.1882M52.4077 186.631H91.8812" stroke="#F3F3F3" stroke-width="6.68174" stroke-linecap="round"/>
<path d="M57.8822 199.664C57.2931 198.311 58.5389 197.065 60.015 197.065H84.2747C85.7508 197.065 86.9966 198.311 86.4075 199.664C85.3633 202.063 82.9169 203.747 80.0655 203.747H64.2242C61.3728 203.747 58.9264 202.063 57.8822 199.664Z" fill="#F3F3F3"/>
<path d="M81.8519 98.8224C71.928 105.299 52.3476 115.281 53.4176 103.391C54.3726 92.7805 62.3092 88.6181 71.1182 81.9692C71.8138 81.4442 71.346 80.6242 70.553 80.9855C63.595 84.1552 54.112 89.142 55.4981 77.9357C57.5787 61.1159 85.1213 48.2123 90.5208 47.8608" stroke="#F3F3F3" stroke-width="6.68174" stroke-linecap="round"/>
<path d="M51.0479 156.261C58.4451 148.399 76.7576 135.927 82.2066 99.0739" stroke="#F3F3F3" stroke-width="6.68174" stroke-linecap="round"/>
</svg>
