<svg width="170" height="45" viewBox="0 0 170 45" fill="none" xmlns="http://www.w3.org/2000/svg">
<path d="M20.7647 33.0488L27.509 22.5479C28.7897 20.4413 29.5272 17.9681 29.5272 15.3227C29.5272 7.6301 23.2911 1.39404 15.5985 1.39404C7.90598 1.39404 1.66992 7.6301 1.66992 15.3227C1.66992 17.9681 2.40743 20.4413 3.68805 22.5479L10.5116 32.8798C10.6429 33.0787 10.9354 33.0767 11.064 32.8761M10.5947 36.4424H20.6024M11.3128 39.9656H19.8843" stroke="#1E1E1E" stroke-width="2" stroke-linecap="round"/>
<path d="M12.3838 42.2314H18.8124C18.8124 43.336 18.1433 44.2314 17.318 44.2314H13.8782C13.0528 44.2314 12.3838 43.336 12.3838 42.2314Z" fill="#1E1E1E"/>
<path d="M17.706 20.8985C15.551 22.305 11.2993 24.4724 11.5316 21.8907C11.739 19.5866 13.4624 18.6827 15.3752 17.239C15.5262 17.125 15.4247 16.9469 15.2525 17.0254C13.7416 17.7136 11.6824 18.7965 11.9834 16.3631C12.4352 12.7108 18.4159 9.90884 19.5884 9.83252" stroke="#1E1E1E" stroke-width="2" stroke-linecap="round"/>
<path d="M11.0173 33.3711C12.6235 31.6639 16.6 28.9556 17.7832 20.9531" stroke="#1E1E1E" stroke-width="2" stroke-linecap="round"/>
<path d="M50.262 16.6297V22.2576H56.3971V24.0692H50.262V29.8662H57.1218V31.6777H48.064V14.8182H57.1218V16.6297H50.262ZM66.8968 18.1997C68.5071 18.1997 69.8114 18.6909 70.8098 19.6731C71.8081 20.6393 72.3073 22.0402 72.3073 23.876V31.6777H70.1335V24.19C70.1335 22.8695 69.8033 21.8631 69.1431 21.1707C68.4829 20.4622 67.5812 20.1079 66.4379 20.1079C65.2785 20.1079 64.3526 20.4702 63.6602 21.1949C62.9838 21.9195 62.6457 22.9742 62.6457 24.359V31.6777H60.4477V18.4413H62.6457V20.3253C63.0805 19.649 63.6682 19.1257 64.4089 18.7553C65.1658 18.3849 65.9951 18.1997 66.8968 18.1997ZM78.0958 13.8037V31.6777H75.8978V13.8037H78.0958ZM82.9772 16.2916C82.5585 16.2916 82.2043 16.1466 81.9144 15.8568C81.6246 15.5669 81.4797 15.2127 81.4797 14.794C81.4797 14.3753 81.6246 14.0211 81.9144 13.7312C82.2043 13.4414 82.5585 13.2965 82.9772 13.2965C83.3798 13.2965 83.7179 13.4414 83.9917 13.7312C84.2815 14.0211 84.4265 14.3753 84.4265 14.794C84.4265 15.2127 84.2815 15.5669 83.9917 15.8568C83.7179 16.1466 83.3798 16.2916 82.9772 16.2916ZM84.04 18.4413V31.6777H81.842V18.4413H84.04ZM93.245 18.2239C94.3883 18.2239 95.3866 18.4735 96.2401 18.9727C97.1096 19.4719 97.7537 20.0999 98.1724 20.8567V18.4413H100.395V31.9676C100.395 33.1753 100.137 34.2461 99.6216 35.1801C99.1064 36.1301 98.3656 36.8709 97.3995 37.4023C96.4494 37.9336 95.3383 38.1993 94.0662 38.1993C92.3271 38.1993 90.8779 37.7887 89.7185 36.9675C88.5591 36.1462 87.8747 35.0271 87.6654 33.6101H89.8392C90.0808 34.4152 90.58 35.0593 91.3368 35.5424C92.0936 36.0416 93.0034 36.2912 94.0662 36.2912C95.2739 36.2912 96.2562 35.9128 97.013 35.1559C97.7859 34.3991 98.1724 33.3363 98.1724 31.9676V29.1899C97.7376 29.9628 97.0935 30.6069 96.2401 31.1222C95.3866 31.6375 94.3883 31.8951 93.245 31.8951C92.0695 31.8951 90.9986 31.6053 90.0325 31.0256C89.0824 30.4459 88.3336 29.6327 87.7861 28.586C87.2386 27.5393 86.9649 26.3477 86.9649 25.0112C86.9649 23.6586 87.2386 22.475 87.7861 21.4606C88.3336 20.43 89.0824 19.6329 90.0325 19.0693C90.9986 18.5057 92.0695 18.2239 93.245 18.2239ZM98.1724 25.0354C98.1724 24.037 97.9711 23.1674 97.5685 22.4267C97.166 21.686 96.6185 21.1224 95.9261 20.7359C95.2498 20.3334 94.501 20.1321 93.6797 20.1321C92.8585 20.1321 92.1097 20.3253 91.4334 20.7118C90.7571 21.0982 90.2176 21.6618 89.8151 22.4026C89.4125 23.1433 89.2112 24.0128 89.2112 25.0112C89.2112 26.0257 89.4125 26.9113 89.8151 27.6682C90.2176 28.4089 90.7571 28.9805 91.4334 29.3831C92.1097 29.7696 92.8585 29.9628 93.6797 29.9628C94.501 29.9628 95.2498 29.7696 95.9261 29.3831C96.6185 28.9805 97.166 28.4089 97.5685 27.6682C97.9711 26.9113 98.1724 26.0337 98.1724 25.0354ZM110.679 18.1997C111.677 18.1997 112.579 18.4171 113.384 18.8519C114.189 19.2706 114.817 19.9066 115.268 20.7601C115.735 21.6135 115.969 22.6522 115.969 23.876V31.6777H113.795V24.19C113.795 22.8695 113.465 21.8631 112.805 21.1707C112.144 20.4622 111.243 20.1079 110.099 20.1079C108.94 20.1079 108.014 20.4702 107.322 21.1949C106.645 21.9195 106.307 22.9742 106.307 24.359V31.6777H104.109V13.8037H106.307V20.3253C106.742 19.649 107.338 19.1257 108.094 18.7553C108.867 18.3849 109.729 18.1997 110.679 18.1997ZM122.24 20.2528V28.0546C122.24 28.6987 122.377 29.1577 122.651 29.4314C122.925 29.689 123.4 29.8179 124.076 29.8179H125.694V31.6777H123.714C122.49 31.6777 121.572 31.3959 120.96 30.8323C120.348 30.2687 120.042 29.3428 120.042 28.0546V20.2528H118.327V18.4413H120.042V15.108H122.24V18.4413H125.694V20.2528H122.24ZM129.493 16.2916C129.074 16.2916 128.72 16.1466 128.43 15.8568C128.14 15.5669 127.995 15.2127 127.995 14.794C127.995 14.3753 128.14 14.0211 128.43 13.7312C128.72 13.4414 129.074 13.2965 129.493 13.2965C129.895 13.2965 130.233 13.4414 130.507 13.7312C130.797 14.0211 130.942 14.3753 130.942 14.794C130.942 15.2127 130.797 15.5669 130.507 15.8568C130.233 16.1466 129.895 16.2916 129.493 16.2916ZM130.556 18.4413V31.6777H128.357V18.4413H130.556ZM138.988 31.8951C137.973 31.8951 137.063 31.726 136.258 31.3879C135.453 31.0336 134.817 30.5505 134.35 29.9386C133.883 29.3106 133.625 28.5941 133.577 27.7889H135.848C135.912 28.4491 136.218 28.9886 136.765 29.4072C137.329 29.8259 138.062 30.0353 138.963 30.0353C139.801 30.0353 140.461 29.8501 140.944 29.4797C141.427 29.1093 141.669 28.6424 141.669 28.0788C141.669 27.4991 141.411 27.0724 140.896 26.7986C140.38 26.5088 139.583 26.227 138.504 25.9532C137.522 25.6956 136.717 25.4379 136.089 25.1803C135.477 24.9065 134.946 24.512 134.495 23.9967C134.06 23.4653 133.843 22.7729 133.843 21.9195C133.843 21.2432 134.044 20.6232 134.447 20.0596C134.849 19.496 135.421 19.0532 136.162 18.7311C136.902 18.393 137.748 18.2239 138.698 18.2239C140.163 18.2239 141.347 18.5943 142.248 19.335C143.15 20.0757 143.633 21.0902 143.698 22.3784H141.5C141.451 21.686 141.169 21.1304 140.654 20.7118C140.155 20.2931 139.479 20.0838 138.625 20.0838C137.836 20.0838 137.208 20.2528 136.741 20.591C136.274 20.9292 136.041 21.372 136.041 21.9195C136.041 22.3543 136.178 22.7166 136.451 23.0064C136.741 23.2802 137.095 23.5056 137.514 23.6827C137.949 23.8438 138.545 24.0289 139.302 24.2383C140.252 24.4959 141.025 24.7536 141.62 25.0112C142.216 25.2527 142.723 25.6231 143.142 26.1223C143.577 26.6215 143.802 27.2736 143.818 28.0788C143.818 28.8034 143.617 29.4556 143.215 30.0353C142.812 30.615 142.24 31.0739 141.5 31.412C140.775 31.7341 139.938 31.8951 138.988 31.8951ZM153.491 18.1997C154.49 18.1997 155.391 18.4171 156.196 18.8519C157.002 19.2706 157.63 19.9066 158.08 20.7601C158.547 21.6135 158.781 22.6522 158.781 23.876V31.6777H156.607V24.19C156.607 22.8695 156.277 21.8631 155.617 21.1707C154.956 20.4622 154.055 20.1079 152.911 20.1079C151.752 20.1079 150.826 20.4702 150.134 21.1949C149.457 21.9195 149.119 22.9742 149.119 24.359V31.6777H146.921V13.8037H149.119V20.3253C149.554 19.649 150.15 19.1257 150.907 18.7553C151.68 18.3849 152.541 18.1997 153.491 18.1997Z" fill="#1E1E1E"/>
</svg>
